<mxfile host="app.diagrams.net" modified="2022-05-20T09:59:36.619Z" agent="5.0 (X11)" etag="L5M5jC8KEW5QRZzhSnMo" version="17.4.3" type="github">
  <diagram id="evLlXJ1vAEk7Vaz2wlL_" name="Page-1">
    <mxGraphModel dx="1262" dy="667" grid="1" gridSize="10" guides="1" tooltips="1" connect="1" arrows="1" fold="1" page="1" pageScale="1" pageWidth="1100" pageHeight="1700" math="0" shadow="0">
      <root>
        <mxCell id="0" />
        <mxCell id="1" parent="0" />
        <mxCell id="uD09eHVvySuT4ISVIMRk-1" value="&lt;div style=&quot;font-size: 16px&quot; align=&quot;left&quot;&gt;&lt;font style=&quot;font-size: 16px&quot;&gt;_id:ObjectId;&lt;/font&gt;&lt;/div&gt;&lt;div style=&quot;font-size: 16px&quot; align=&quot;left&quot;&gt;&lt;font style=&quot;font-size: 16px&quot;&gt;name:string;&lt;br style=&quot;font-size: 16px&quot;&gt;&lt;/font&gt;&lt;/div&gt;&lt;div style=&quot;font-size: 16px&quot; align=&quot;left&quot;&gt;&lt;font style=&quot;font-size: 16px&quot;&gt;unit-Head:Id of user;&lt;/font&gt;&lt;/div&gt;&lt;div style=&quot;font-size: 16px&quot; align=&quot;left&quot;&gt;&lt;font style=&quot;font-size: 16px&quot;&gt;organization:OrganizationId;&lt;br style=&quot;font-size: 16px&quot;&gt;&lt;/font&gt;&lt;/div&gt;&lt;div style=&quot;font-size: 16px&quot; align=&quot;left&quot;&gt;&lt;font style=&quot;font-size: 16px&quot;&gt;parent-UnitIds:[p1:father,&lt;/font&gt;&lt;/div&gt;&lt;div style=&quot;font-size: 16px&quot; align=&quot;left&quot;&gt;&lt;font style=&quot;font-size: 16px&quot;&gt;p2:grandfather,p3:....],&lt;/font&gt;&lt;/div&gt;&lt;div style=&quot;font-size: 16px&quot; align=&quot;left&quot;&gt;&lt;font style=&quot;font-size: 16px&quot;&gt;ParentId:UnitId&lt;br style=&quot;font-size: 16px&quot;&gt;&lt;/font&gt;&lt;/div&gt;" style="rounded=0;whiteSpace=wrap;html=1;fontSize=16;" vertex="1" parent="1">
          <mxGeometry x="370" y="40" width="250" height="180" as="geometry" />
        </mxCell>
        <mxCell id="uD09eHVvySuT4ISVIMRk-2" value="Unit" style="text;html=1;strokeColor=none;fillColor=none;align=center;verticalAlign=middle;whiteSpace=wrap;rounded=0;fontSize=20;" vertex="1" parent="1">
          <mxGeometry x="450" y="10" width="60" height="30" as="geometry" />
        </mxCell>
        <mxCell id="uD09eHVvySuT4ISVIMRk-3" value="&lt;div style=&quot;font-size: 20px&quot; align=&quot;left&quot;&gt;&lt;font style=&quot;font-size: 20px&quot;&gt;_id:ObjectId;&lt;/font&gt;&lt;/div&gt;&lt;div style=&quot;font-size: 20px&quot; align=&quot;left&quot;&gt;&lt;font style=&quot;font-size: 20px&quot;&gt;name:string;&lt;br&gt;&lt;/font&gt;&lt;/div&gt;&lt;div style=&quot;font-size: 20px&quot; align=&quot;left&quot;&gt;&lt;font style=&quot;font-size: 20px&quot;&gt;org-Head:Id of User;&lt;/font&gt;&lt;/div&gt;" style="rounded=0;whiteSpace=wrap;html=1;" vertex="1" parent="1">
          <mxGeometry x="20" y="75" width="230" height="90" as="geometry" />
        </mxCell>
        <mxCell id="uD09eHVvySuT4ISVIMRk-4" value="Organization" style="text;html=1;strokeColor=none;fillColor=none;align=center;verticalAlign=middle;whiteSpace=wrap;rounded=0;fontSize=20;" vertex="1" parent="1">
          <mxGeometry x="100" y="40" width="60" height="30" as="geometry" />
        </mxCell>
        <mxCell id="uD09eHVvySuT4ISVIMRk-5" value="" style="endArrow=none;html=1;rounded=0;fontSize=16;exitX=1;exitY=0.5;exitDx=0;exitDy=0;entryX=0;entryY=0.5;entryDx=0;entryDy=0;" edge="1" parent="1" source="uD09eHVvySuT4ISVIMRk-3">
          <mxGeometry width="50" height="50" relative="1" as="geometry">
            <mxPoint x="410" y="290" as="sourcePoint" />
            <mxPoint x="370" y="120" as="targetPoint" />
          </mxGeometry>
        </mxCell>
        <mxCell id="uD09eHVvySuT4ISVIMRk-6" value="Position" style="text;html=1;strokeColor=none;fillColor=none;align=center;verticalAlign=middle;whiteSpace=wrap;rounded=0;fontSize=20;" vertex="1" parent="1">
          <mxGeometry x="490" y="250" width="60" height="30" as="geometry" />
        </mxCell>
        <mxCell id="uD09eHVvySuT4ISVIMRk-7" value="&lt;div style=&quot;font-size: 21px&quot; align=&quot;left&quot;&gt;&lt;font style=&quot;font-size: 21px&quot;&gt;&amp;nbsp; _id:ObjectId;&lt;/font&gt;&lt;/div&gt;&lt;div style=&quot;font-size: 21px&quot; align=&quot;left&quot;&gt;&lt;font style=&quot;font-size: 21px&quot;&gt;&lt;span&gt;  &lt;/span&gt;name:string;&lt;/font&gt;&lt;/div&gt;&lt;div style=&quot;font-size: 21px&quot; align=&quot;left&quot;&gt;&lt;font style=&quot;font-size: 21px&quot;&gt;&amp;nbsp; unit:UnitId&lt;br&gt;&lt;/font&gt;&lt;/div&gt;" style="whiteSpace=wrap;html=1;aspect=fixed;fontSize=16;" vertex="1" parent="1">
          <mxGeometry x="420" y="296.04" width="150" height="150" as="geometry" />
        </mxCell>
        <mxCell id="uD09eHVvySuT4ISVIMRk-8" value="" style="endArrow=classic;html=1;rounded=0;fontSize=21;entryX=0.328;entryY=1.022;entryDx=0;entryDy=0;entryPerimeter=0;exitX=0.25;exitY=0;exitDx=0;exitDy=0;" edge="1" parent="1" source="uD09eHVvySuT4ISVIMRk-7">
          <mxGeometry width="50" height="50" relative="1" as="geometry">
            <mxPoint x="415" y="316.04" as="sourcePoint" />
            <mxPoint x="457" y="220.00000000000006" as="targetPoint" />
            <Array as="points">
              <mxPoint x="458" y="246.04000000000002" />
            </Array>
          </mxGeometry>
        </mxCell>
        <mxCell id="uD09eHVvySuT4ISVIMRk-9" value="&lt;div&gt;&lt;font size=&quot;3&quot;&gt;_id:ObjectId;&lt;/font&gt;&lt;/div&gt;&lt;div&gt;&lt;font size=&quot;3&quot;&gt;firstName:string;&lt;/font&gt;&lt;/div&gt;&lt;div&gt;&lt;font size=&quot;3&quot;&gt;lastName:string;&lt;/font&gt;&lt;/div&gt;&lt;div&gt;&lt;font size=&quot;3&quot;&gt;phoneNumber:string;&lt;/font&gt;&lt;/div&gt;&lt;div&gt;&lt;font size=&quot;3&quot;&gt;ssn?:string;&lt;/font&gt;&lt;/div&gt;" style="whiteSpace=wrap;html=1;aspect=fixed;" vertex="1" parent="1">
          <mxGeometry x="35" y="320" width="190" height="190" as="geometry" />
        </mxCell>
        <mxCell id="uD09eHVvySuT4ISVIMRk-10" value="User" style="text;html=1;strokeColor=none;fillColor=none;align=center;verticalAlign=middle;whiteSpace=wrap;rounded=0;fontSize=20;" vertex="1" parent="1">
          <mxGeometry x="80" y="280" width="60" height="30" as="geometry" />
        </mxCell>
        <mxCell id="uD09eHVvySuT4ISVIMRk-14" style="edgeStyle=orthogonalEdgeStyle;rounded=0;orthogonalLoop=1;jettySize=auto;html=1;exitX=0;exitY=0.5;exitDx=0;exitDy=0;entryX=0.5;entryY=1;entryDx=0;entryDy=0;fontSize=15;" edge="1" parent="1" source="uD09eHVvySuT4ISVIMRk-11" target="uD09eHVvySuT4ISVIMRk-9">
          <mxGeometry relative="1" as="geometry" />
        </mxCell>
        <mxCell id="uD09eHVvySuT4ISVIMRk-11" value="&lt;div style=&quot;font-size: 15px&quot;&gt;&lt;font style=&quot;font-size: 15px&quot;&gt;_id:ObjectId&lt;/font&gt;&lt;/div&gt;&lt;div style=&quot;font-size: 15px&quot;&gt;&lt;font style=&quot;font-size: 15px&quot;&gt;UserId: Id Of User&lt;/font&gt;&lt;/div&gt;&lt;div style=&quot;font-size: 15px&quot;&gt;&lt;font style=&quot;font-size: 15px&quot;&gt;PositionId: Id Of Position&lt;br&gt;&lt;/font&gt;&lt;/div&gt;" style="whiteSpace=wrap;html=1;aspect=fixed;align=center;" vertex="1" parent="1">
          <mxGeometry x="420" y="530" width="160" height="160" as="geometry" />
        </mxCell>
        <mxCell id="uD09eHVvySuT4ISVIMRk-12" value="PositionUser" style="text;html=1;strokeColor=none;fillColor=none;align=center;verticalAlign=middle;whiteSpace=wrap;rounded=0;fontSize=20;" vertex="1" parent="1">
          <mxGeometry x="465" y="500" width="60" height="30" as="geometry" />
        </mxCell>
        <mxCell id="uD09eHVvySuT4ISVIMRk-15" value="" style="endArrow=classic;html=1;rounded=0;fontSize=15;entryX=1;entryY=0.75;entryDx=0;entryDy=0;" edge="1" parent="1" source="uD09eHVvySuT4ISVIMRk-11" target="uD09eHVvySuT4ISVIMRk-7">
          <mxGeometry width="50" height="50" relative="1" as="geometry">
            <mxPoint x="470" y="470" as="sourcePoint" />
            <mxPoint x="520" y="420" as="targetPoint" />
            <Array as="points">
              <mxPoint x="640" y="490" />
              <mxPoint x="640" y="410" />
            </Array>
          </mxGeometry>
        </mxCell>
        <mxCell id="uD09eHVvySuT4ISVIMRk-16" value="&lt;div&gt;_id:ObjectId;&lt;/div&gt;&lt;div&gt;name:string;&lt;/div&gt;&lt;div&gt;wareType:WareTypeId;&lt;/div&gt;&lt;div&gt;brand:string;&lt;/div&gt;&lt;div&gt;price:string;&lt;/div&gt;&lt;div&gt;number:number&lt;br&gt;&lt;/div&gt;" style="whiteSpace=wrap;html=1;aspect=fixed;fontSize=15;" vertex="1" parent="1">
          <mxGeometry x="640" y="740" width="160" height="160" as="geometry" />
        </mxCell>
        <mxCell id="uD09eHVvySuT4ISVIMRk-17" value="&lt;div&gt;_id:ObjectId;&lt;/div&gt;&lt;div&gt;name:string&lt;br&gt;&lt;/div&gt;" style="whiteSpace=wrap;html=1;aspect=fixed;fontSize=15;" vertex="1" parent="1">
          <mxGeometry x="400" y="740" width="160" height="160" as="geometry" />
        </mxCell>
        <mxCell id="uD09eHVvySuT4ISVIMRk-18" value="Ware" style="text;html=1;strokeColor=none;fillColor=none;align=center;verticalAlign=middle;whiteSpace=wrap;rounded=0;fontSize=20;" vertex="1" parent="1">
          <mxGeometry x="690" y="690" width="60" height="30" as="geometry" />
        </mxCell>
        <mxCell id="uD09eHVvySuT4ISVIMRk-19" value="WareType" style="text;html=1;strokeColor=none;fillColor=none;align=center;verticalAlign=middle;whiteSpace=wrap;rounded=0;fontSize=20;" vertex="1" parent="1">
          <mxGeometry x="450" y="710" width="60" height="30" as="geometry" />
        </mxCell>
        <mxCell id="uD09eHVvySuT4ISVIMRk-20" value="" style="endArrow=none;html=1;rounded=0;fontSize=15;exitX=1;exitY=0.5;exitDx=0;exitDy=0;entryX=0;entryY=0.5;entryDx=0;entryDy=0;" edge="1" parent="1" source="uD09eHVvySuT4ISVIMRk-17" target="uD09eHVvySuT4ISVIMRk-16">
          <mxGeometry width="50" height="50" relative="1" as="geometry">
            <mxPoint x="590" y="860" as="sourcePoint" />
            <mxPoint x="640" y="810" as="targetPoint" />
          </mxGeometry>
        </mxCell>
        <mxCell id="uD09eHVvySuT4ISVIMRk-21" value="" style="whiteSpace=wrap;html=1;aspect=fixed;fontSize=15;" vertex="1" parent="1">
          <mxGeometry x="510" y="1040" width="220" height="220" as="geometry" />
        </mxCell>
        <mxCell id="uD09eHVvySuT4ISVIMRk-22" value="Order" style="text;html=1;strokeColor=none;fillColor=none;align=center;verticalAlign=middle;whiteSpace=wrap;rounded=0;fontSize=20;" vertex="1" parent="1">
          <mxGeometry x="590" y="1000" width="60" height="30" as="geometry" />
        </mxCell>
        <mxCell id="uD09eHVvySuT4ISVIMRk-23" value="" style="whiteSpace=wrap;html=1;aspect=fixed;fontSize=15;" vertex="1" parent="1">
          <mxGeometry x="60" y="1040" width="220" height="220" as="geometry" />
        </mxCell>
        <mxCell id="uD09eHVvySuT4ISVIMRk-24" value="ShoppingCart" style="text;html=1;strokeColor=none;fillColor=none;align=center;verticalAlign=middle;whiteSpace=wrap;rounded=0;fontSize=20;" vertex="1" parent="1">
          <mxGeometry x="130" y="1000" width="60" height="30" as="geometry" />
        </mxCell>
        <mxCell id="uD09eHVvySuT4ISVIMRk-25" value="&lt;div&gt;_id:ObjectId;&lt;/div&gt;&lt;div&gt;phone:string;&lt;/div&gt;&lt;div&gt;address:string;&lt;/div&gt;&lt;div&gt;name:string&lt;/div&gt;&lt;div&gt;owner:UserId;&lt;/div&gt;" style="whiteSpace=wrap;html=1;aspect=fixed;fontSize=15;" vertex="1" parent="1">
          <mxGeometry x="860" y="1050" width="170" height="170" as="geometry" />
        </mxCell>
        <mxCell id="uD09eHVvySuT4ISVIMRk-26" value="Shop" style="text;html=1;strokeColor=none;fillColor=none;align=center;verticalAlign=middle;whiteSpace=wrap;rounded=0;fontSize=20;" vertex="1" parent="1">
          <mxGeometry x="910" y="1000" width="60" height="30" as="geometry" />
        </mxCell>
      </root>
    </mxGraphModel>
  </diagram>
</mxfile>
